<svg width="200" height="200" viewBox="0 0 200 200" fill="none" xmlns="http://www.w3.org/2000/svg">
<rect width="200" height="200" fill="#0C0F04"/>
<path d="M96.1675 54.0399C96.9428 46.2713 97.5631 39.7456 98.0283 33.0645C98.1833 27.4711 98.4934 21.7223 98.6485 15.9735C98.6485 13.6429 98.3384 11.0015 97.7181 8.82631C96.7878 5.56346 93.8416 3.85436 91.0505 4.00973C88.1043 4.1651 86.0885 6.02958 85.3132 8.98168C84.693 11.4676 84.2278 13.6429 83.6076 16.1288C81.1266 31.3554 78.4905 46.1159 75.8545 61.1871C73.0634 78.5889 70.2723 95.9907 67.3261 113.392C67.016 115.412 66.2407 116.811 65.1553 118.364C60.0382 124.269 54.9212 130.328 49.9592 136.388C48.7188 138.252 47.6333 140.427 46.5479 142.447C45.6175 145.089 45.7726 147.885 47.7884 150.371C49.8042 152.547 52.5953 153.168 55.2313 152.08C56.4718 151.459 57.8674 150.837 58.9528 150.216C60.3484 149.284 61.4338 148.041 62.6743 147.264C63.1395 146.953 63.6046 146.798 64.0698 146.642C64.3799 147.108 64.535 147.575 64.535 147.885C64.535 152.08 64.6901 155.965 64.8451 160.16C65.0002 167.462 65.4654 174.765 67.016 181.912C67.6362 184.864 68.8767 187.816 70.1172 190.458C71.0476 192.633 72.5982 194.187 74.7691 195.274C77.095 196.362 79.8861 196.362 81.9019 194.342C83.9177 192.633 84.5379 190.302 83.6076 187.506C83.4525 186.573 83.1424 185.486 83.2974 184.398C82.8322 175.231 83.2974 165.909 84.5379 156.897C85.6234 146.021 87.4841 135.456 89.0347 124.89C89.3448 123.492 89.81 122.093 90.5853 121.627C99.5789 113.548 108.727 105.935 118.031 98.1659C118.341 97.8552 119.117 98.0105 119.582 97.8552C119.582 98.1659 119.582 98.632 119.582 99.2535C117.721 109.197 116.015 119.452 114.155 129.551C112.759 138.563 111.829 147.885 111.829 157.052C111.829 161.247 112.139 165.132 113.379 168.861C114.62 171.657 115.86 173.988 118.496 174.92C121.753 176.163 124.854 175.076 125.939 171.968C126.715 170.57 126.715 168.705 127.025 167.307C127.8 160.471 128.265 154.1 129.506 147.419C133.227 128.619 137.259 109.664 140.98 91.0187C141.911 88.0667 142.531 85.1146 143.151 82.0071C143.616 79.6765 143.771 79.5211 146.097 80.298C147.648 80.9195 148.578 80.4534 149.819 79.8319C153.54 77.0352 152.92 71.2863 148.578 69.1111C145.942 67.5574 145.942 67.5574 146.562 64.4499C147.958 55.9044 149.819 46.7374 151.679 38.0365C152.61 30.7339 153.695 23.4314 154.781 16.1288C154.936 14.4197 155.091 12.3999 154.936 10.6908C154.471 8.20481 153.23 6.96182 151.214 6.18496C149.198 5.8742 147.648 6.4957 146.252 8.04943C145.632 8.82631 145.167 9.91392 144.702 11.0015C143.616 13.4875 142.686 15.8181 142.066 18.3041C136.639 35.8612 131.056 53.2631 125.939 70.8202C125.629 72.8401 124.699 73.6169 122.838 74.5492C114.465 77.9674 106.247 82.784 98.4934 88.0667C97.408 89.1543 95.7023 90.0865 94.4618 91.0187C93.9967 91.3295 93.3764 91.4849 92.9112 91.4849C92.9112 91.0188 92.7562 90.3972 92.7562 89.7757C92.7562 89.1543 92.9112 88.6881 92.9112 88.0667C93.9967 76.569 95.2371 64.7607 96.1675 54.0399Z" fill="#E1B26B"/>
</svg>
